Coordinates
version=1
nRows=14
nColumns=42
inDegrees=yes

Units are S.I. units (second, meters, Newtons, ...)
If the header above contains a line with 'inDegrees', this indicates whether rotational values are in degrees (yes) or radians (no).

endheader
time	pelvis_tilt	pelvis_list	pelvis_rotation	pelvis_tx	pelvis_ty	pelvis_tz	hip_flexion_r	hip_adduction_r	hip_rotation_r	knee_angle_r	knee_adduction_r	knee_angle_r_beta	ankle_angle_r	subtalar_angle_r	mtp_angle_r	hip_flexion_l	hip_adduction_l	hip_rotation_l	knee_angle_l	knee_adduction_l	knee_angle_l_beta	ankle_angle_l	subtalar_angle_l	mtp_angle_l	lumbar_extension	lumbar_bending	lumbar_rotation	arm_flex_r	arm_add_r	arm_rot_r	elbow_flex_r	pro_sup_r	wrist_flex_r	wrist_dev_r	arm_flex_l	arm_add_l	arm_rot_l	elbow_flex_l	pro_sup_l	wrist_flex_l	wrist_dev_l
      0.92000000	     21.89983629	      4.89051735	      4.30295657	     -0.86574067	      0.98115811	      0.17944836	      9.17163627	     -6.08213768	    -23.94678751	     26.49105443	     -8.96764419	      0.46235612	     10.15931327	     17.85697626	     -7.76893426	    -27.29282936	      6.09894355	    -18.74351743	     18.21167411	     -6.66902120	      0.31785368	     23.32973483	     32.75364445	     -7.76893426	    -43.49187064	     -2.45978797	      0.57717292	     -3.23971791	    -16.00653732	     -9.12002376	     63.68826791	     90.00000001	      0.00000000	      0.00000000	     12.26749567	    -24.93476534	      9.21351951	     70.98052536	     90.00000001	      0.00000000	      0.00000000
      0.93000000	     21.79275000	      5.29011921	      4.83666080	     -0.85217829	      0.97821177	      0.17934032	      9.96944126	     -7.00988264	    -28.35382511	     24.63594275	     -9.56080025	      0.42997832	     10.22715204	     24.74351583	     -7.75296517	    -27.90241604	      6.03475894	    -18.79556369	     18.64409564	     -6.81554612	      0.32540086	     24.01339807	     33.23886899	     -7.75296517	    -43.37649015	     -2.61566919	      0.28338139	     -3.81086689	    -15.69877208	     -9.78362567	     63.75248772	     90.00000001	      0.00000000	      0.00000000	     13.42922099	    -25.54498284	     11.04355276	     71.21316576	     90.00000001	      0.00000000	      0.00000000
      0.94000000	     21.59278769	      5.57899887	      5.42275632	     -0.83874370	      0.97540112	      0.17924448	     10.58080107	     -7.61936479	    -30.89164044	     22.83797298	     -9.37741716	      0.39859782	      9.78742279	     27.65287993	     -7.73821142	    -28.38496665	      5.84527885	    -18.53360771	     19.13844510	     -6.88576158	      0.33402888	     24.49178727	     33.44723657	     -7.73821142	    -43.22139684	     -2.61989356	     -0.11360944	     -4.16307866	    -15.50425097	    -10.09516450	     63.65836782	     90.00000001	      0.00000000	      0.00000000	     14.38142830	    -25.71718575	     11.78814842	     71.37194623	     90.00000001	      0.00000000	      0.00000000
      0.95000000	     21.34686939	      5.78696295	      6.03281622	     -0.82522346	      0.97271519	      0.17918410	     11.04265441	     -7.98217861	    -32.23496676	     21.18181560	     -8.83958464	      0.36969242	      9.21909899	     28.20382360	     -7.73427367	    -28.78429849	      5.53858123	    -18.19164907	     19.71071879	     -6.89271517	      0.34401694	     24.83786004	     33.56228776	     -7.73427367	    -43.03193288	     -2.54130680	     -0.55254798	     -4.43419299	    -15.37159570	    -10.17395118	     63.50899322	     90.00000001	      0.00000000	      0.00000000	     15.14294526	    -25.74642550	     12.11232902	     71.56675657	     90.00000001	      0.00000000	      0.00000000
      0.96000000	     21.02015023	      6.05047564	      6.57830664	     -0.81149082	      0.96996708	      0.17907267	     11.56764412	     -8.42318960	    -33.26179849	     19.93392959	     -8.30268841	      0.34791270	      8.96678960	     28.56465577	     -7.73162649	    -29.06814320	      5.38138711	    -17.99783495	     20.31613065	     -7.09226240	      0.35458337	     25.03533693	     33.56551271	     -7.73162649	    -42.75002960	     -2.54122019	     -0.93800585	     -4.73597117	    -15.24761565	    -10.25706348	     63.31789552	     90.00000001	      0.00000000	      0.00000000	     15.84698000	    -25.70619786	     12.44138971	     71.75232859	     90.00000001	      0.00000000	      0.00000000
      0.97000000	     20.68287080	      6.23946069	      7.25041113	     -0.79735796	      0.96726743	      0.17900715	     12.08568342	     -8.83341085	    -35.12705578	     19.00445815	     -8.17992547	      0.33169037	      8.59994027	     30.89290585	     -7.71948590	    -29.28376500	      4.98305232	    -17.94615456	     21.09053823	     -7.23312955	      0.36809933	     25.45052342	     33.85734649	     -7.71948590	    -42.38882470	     -2.43371671	     -1.16136201	     -5.09120609	    -14.87752885	    -10.96433155	     62.91804483	     90.00000001	      0.00000000	      0.00000000	     16.86340489	    -26.04464084	     14.19884992	     71.58668258	     90.00000001	      0.00000000	      0.00000000
      0.98000000	     20.24578353	      6.48330346	      7.79875225	     -0.78307156	      0.96460930	      0.17890702	     12.61264231	     -9.17278612	    -35.53823055	     18.41994851	     -7.85439771	      0.32148875	      8.59881464	     30.77720657	     -7.71860340	    -29.42454783	      4.77502418	    -17.81299546	     21.78019795	     -7.43487820	      0.38013617	     25.43179086	     33.90188157	     -7.71860340	    -41.95050099	     -2.42976168	     -1.54695574	     -5.44731155	    -14.75760884	    -10.96773001	     62.74125244	     90.00000001	      0.00000000	      0.00000000	     17.27470061	    -25.86780557	     14.26952604	     71.75730399	     90.00000001	      0.00000000	      0.00000000
      0.99000000	     19.84666164	      6.60722000	      8.43346643	     -0.76858382	      0.96213994	      0.17884807	     13.04433203	     -9.34082518	    -35.97294729	     18.13648936	     -7.73705868	      0.31654145	      8.47619382	     30.56988286	     -7.71729845	    -29.54154631	      4.33919815	    -17.54892434	     22.64946726	     -7.56169860	      0.39530778	     25.40172990	     33.98751565	     -7.71729845	    -41.54743505	     -2.26558228	     -1.88703289	     -5.71756824	    -14.60965029	    -11.03098354	     62.46195046	     90.00000001	      0.00000000	      0.00000000	     17.67967909	    -25.73535504	     14.47968433	     71.86432953	     90.00000001	      0.00000000	      0.00000000
      1.00000000	     19.40309240	      6.66745362	      9.04977462	     -0.75375635	      0.95977333	      0.17885161	     13.51356804	     -9.40005262	    -36.11718847	     18.22877892	     -7.78285702	      0.31815221	      8.14360155	     29.82336838	     -7.70846789	    -29.62152541	      3.83256994	    -17.37203958	     23.45656172	     -7.70128965	      0.40939423	     25.33068749	     34.13372894	     -7.70846789	    -41.03371255	     -2.06854125	     -2.12375005	     -5.79123184	    -14.26596564	    -11.64773739	     61.65096295	     90.00000001	      0.00000000	      0.00000000	     18.20931400	    -25.83047212	     15.57958409	     71.72428077	     90.00000001	      0.00000000	      0.00000000
      1.01000000	     18.94534646	      6.73707791	      9.56346290	     -0.73861518	      0.95749908	      0.17890547	     14.01127120	     -9.43616646	    -35.92573238	     18.69016749	     -7.98793807	      0.32620496	      7.97779826	     29.65512519	     -7.70769946	    -29.68458706	      3.40207062	    -17.18919848	     24.27110967	     -7.88477367	      0.42361078	     25.14876063	     34.21905916	     -7.70769946	    -40.49788373	     -1.91035358	     -2.38294807	     -6.11231134	    -14.14262919	    -11.66364748	     61.45263093	     90.00000001	      0.00000000	      0.00000000	     18.26743946	    -25.64496203	     15.65879737	     71.79816622	     90.00000001	      0.00000000	      0.00000000
      1.02000000	     18.49475813	      6.75129716	     10.08716591	     -0.72329682	      0.95542719	      0.17899123	     14.51171132	     -9.44995037	    -35.40914458	     19.65478674	     -8.11409315	      0.34304074	      7.41245062	     27.55436548	     -7.69724425	    -29.72048644	      2.84913340	    -16.95009692	     25.14317971	     -7.95840346	      0.43883127	     24.40677916	     34.41017664	     -7.69724425	    -39.95429823	     -1.70589486	     -2.56921993	     -6.11714174	    -13.86061340	    -12.12372956	     60.61064795	     90.00000001	      0.00000000	      0.00000000	     18.33931864	    -25.50765865	     15.91530587	     71.88599621	     90.00000001	      0.00000000	      0.00000000
      1.03000000	     18.05505042	      6.71262707	     10.51661655	     -0.70772672	      0.95353670	      0.17916532	     15.02137551	     -9.36518717	    -34.62812803	     20.87852018	     -8.34445907	      0.36439892	      6.66860166	     25.89069473	     -7.68643450	    -29.75288075	      2.28891107	    -16.70694413	     26.00895227	     -8.03809537	      0.45394185	     23.63712351	     34.49252370	     -7.68643450	    -39.40460398	     -1.47780463	     -2.73409020	     -6.21887211	    -13.72204680	    -12.26880287	     60.10603626	     90.00000001	      0.00000000	      0.00000000	     18.13757494	    -25.25242999	     15.80084534	     72.00624969	     90.00000001	      0.00000000	      0.00000000
      1.04000000	     17.64292235	      6.64215816	     10.90219234	     -0.69190266	      0.95185854	      0.17939751	     15.54602220	     -9.28648410	    -34.01562209	     22.41942202	     -8.68739489	      0.39129273	      5.73506100	     24.79145701	     -7.68251388	    -29.77639839	      1.70652058	    -16.42995382	     26.90617909	     -8.10729283	      0.46960141	     22.51549787	     34.60959247	     -7.68251388	    -38.86391674	     -1.22722036	     -2.84773506	     -6.33884061	    -13.62971968	    -12.34774425	     59.66224096	     90.00000001	      0.00000000	      0.00000000	     17.82196928	    -25.02511461	     15.69672121	     72.10178473	     90.00000001	      0.00000000	      0.00000000
      1.05000000	     17.27985916	      6.47322715	     11.16758713	     -0.67604850	      0.95050657	      0.17976416	     15.95488585	     -8.95148147	    -32.28956294	     24.03868572	     -8.70959450	      0.41955421	      4.49579637	     21.70855170	     -7.66991348	    -29.79283192	      1.08428738	    -16.05908719	     27.84820301	     -8.10333519	      0.48604283	     21.16428249	     34.47030872	     -7.66991348	    -38.38485421	     -0.92247759	     -2.87701715	     -6.23834703	    -13.53221764	    -12.46151818	     58.96720657	     90.00000001	      0.00000000	      0.00000000	     17.26295440	    -24.64718261	     15.10286845	     72.33335629	     90.00000001	      0.00000000	      0.00000000
